<svg width="56" height="70" viewBox="0 0 56 70" fill="none" xmlns="http://www.w3.org/2000/svg">
<path d="M27.944 37.016C32.928 37.016 36.96 32.984 36.96 28C36.96 23.016 32.928 18.984 27.944 18.984C22.96 18.984 18.928 23.016 18.928 28C18.928 32.928 22.96 37.016 27.944 37.016ZM27.944 21.224C31.696 21.224 34.72 24.248 34.72 28C34.72 31.696 31.696 34.72 27.944 34.72C24.192 34.72 21.168 31.696 21.168 27.944C21.224 24.248 24.248 21.224 27.944 21.224Z" fill="white"/>
<path d="M9.296 34.44H9.632L10.416 36.344L10.192 36.568C7.672 39.088 7.672 43.176 10.192 45.752C11.424 46.984 13.048 47.656 14.784 47.656C16.52 47.656 18.144 46.984 19.376 45.752L19.6 45.528L21.504 46.312V46.648C21.504 50.232 24.416 53.144 28 53.144C31.584 53.144 34.496 50.232 34.496 46.648V46.312L36.4 45.528L36.624 45.752C39.144 48.272 43.232 48.272 45.808 45.752C48.328 43.232 48.328 39.144 45.808 36.568L45.584 36.344L46.368 34.44H46.704C50.288 34.44 53.2 31.528 53.2 27.944C53.2 24.36 50.288 21.448 46.704 21.448H46.368L45.528 19.6L45.752 19.376C48.272 16.856 48.272 12.768 45.752 10.192C43.232 7.67199 39.144 7.67199 36.568 10.192L36.344 10.416L34.44 9.63199V9.29599C34.44 5.71199 31.528 2.79999 27.944 2.79999C24.36 2.79999 21.448 5.71199 21.448 9.29599V9.63199L19.6 10.416L19.376 10.192C16.856 7.67199 12.768 7.67199 10.192 10.192C7.672 12.712 7.672 16.8 10.192 19.376L10.416 19.6L9.632 21.504H9.296C5.712 21.504 2.8 24.416 2.8 27.944C2.8 31.528 5.712 34.44 9.296 34.44ZM9.296 23.744H11.144L13.104 19.04L11.76 17.752C10.136 16.128 10.136 13.44 11.76 11.816C13.384 10.192 16.072 10.192 17.696 11.816L19.04 13.16L23.744 11.2V9.35199C23.744 7.05599 25.648 5.15199 27.944 5.15199C30.24 5.15199 32.144 7.05599 32.144 9.35199V11.2L36.848 13.16L38.192 11.816C39.816 10.192 42.504 10.192 44.128 11.816C45.752 13.44 45.752 16.128 44.128 17.752L42.84 19.04L44.8 23.744H46.648C48.944 23.744 50.848 25.648 50.848 27.944C50.848 30.24 48.944 32.144 46.648 32.144H44.8L42.84 36.848L44.184 38.192C45.808 39.816 45.808 42.504 44.184 44.128C42.56 45.752 39.872 45.752 38.248 44.128L36.904 42.784L32.2 44.8V46.648C32.2 48.944 30.296 50.848 28 50.848C25.704 50.848 23.8 48.944 23.8 46.648V44.8L19.04 42.84L17.696 44.184C16.912 44.968 15.848 45.416 14.728 45.416C13.608 45.416 12.544 44.968 11.76 44.184C10.136 42.56 10.136 39.872 11.76 38.248L13.104 36.904L11.144 32.2H9.296C7 32.2 5.096 30.296 5.096 28C5.096 25.648 6.944 23.744 9.296 23.744Z" fill="white"/>
</svg>
