<svg width="76" height="95" viewBox="0 0 76 95" fill="none" xmlns="http://www.w3.org/2000/svg">
<path d="M24.32 17.9748C24.32 19.2341 23.2986 20.2548 22.04 20.2548C20.7814 20.2548 19.76 19.2341 19.76 17.9748V13.0348C19.76 11.7754 20.7814 10.7548 22.04 10.7548C23.2986 10.7548 24.32 11.7754 24.32 13.0348V17.9748Z" stroke="white" stroke-width="2" stroke-miterlimit="10"/>
<path d="M40.28 17.9748C40.28 19.2341 39.2586 20.2548 38 20.2548C36.7414 20.2548 35.72 19.2341 35.72 17.9748V13.0348C35.72 11.7754 36.7414 10.7548 38 10.7548C39.2586 10.7548 40.28 11.7754 40.28 13.0348V17.9748Z" stroke="white" stroke-width="2" stroke-miterlimit="10"/>
<path d="M56.24 17.9748C56.24 19.2341 55.2186 20.2548 53.96 20.2548C52.7014 20.2548 51.68 19.2341 51.68 17.9748V13.0348C51.68 11.7754 52.7014 10.7548 53.96 10.7548C55.2186 10.7548 56.24 11.7754 56.24 13.0348V17.9748Z" stroke="white" stroke-width="2" stroke-miterlimit="10"/>
<path d="M19.76 15.2752H16.055C14.3762 15.2752 13.015 16.6364 13.015 18.3152V62.2052C13.015 63.8841 14.3762 65.2452 16.055 65.2452H59.945C61.6238 65.2452 62.985 63.8841 62.985 62.2052V18.3152C62.985 16.6364 61.6238 15.2752 59.945 15.2752H56.24" stroke="white" stroke-width="2" stroke-miterlimit="10"/>
<path d="M35.72 15.2752H24.32" stroke="white" stroke-width="2" stroke-miterlimit="10"/>
<path d="M51.68 15.2752H40.28" stroke="white" stroke-width="2" stroke-miterlimit="10"/>
<path d="M13.015 25.5869H62.985" stroke="white" stroke-width="2" stroke-miterlimit="10"/>
<path d="M30.6014 30.245H23.1435V37.7036H30.6014V30.245Z" stroke="white" stroke-width="2" stroke-miterlimit="10" stroke-linecap="round" stroke-linejoin="round"/>
<path d="M41.7293 30.245H34.2707V37.7036H41.7293V30.245Z" stroke="white" stroke-width="2" stroke-miterlimit="10" stroke-linecap="round" stroke-linejoin="round"/>
<path d="M52.8557 30.245H45.3971V37.7036H52.8557V30.245Z" stroke="white" stroke-width="2" stroke-miterlimit="10" stroke-linecap="round" stroke-linejoin="round"/>
<path d="M30.6014 41.651H23.1435V49.1097H30.6014V41.651Z" stroke="white" stroke-width="2" stroke-miterlimit="10" stroke-linecap="round" stroke-linejoin="round"/>
<path d="M41.7293 41.651H34.2707V49.1097H41.7293V41.651Z" stroke="white" stroke-width="2" stroke-miterlimit="10" stroke-linecap="round" stroke-linejoin="round"/>
<path d="M52.8557 41.651H45.3971V49.1097H52.8557V41.651Z" stroke="white" stroke-width="2" stroke-miterlimit="10" stroke-linecap="round" stroke-linejoin="round"/>
<path d="M30.6014 53.0571H23.1435V60.5158H30.6014V53.0571Z" stroke="white" stroke-width="2" stroke-miterlimit="10" stroke-linecap="round" stroke-linejoin="round"/>
<path d="M41.7293 53.0571H34.2707V60.5158H41.7293V53.0571Z" stroke="white" stroke-width="2" stroke-miterlimit="10" stroke-linecap="round" stroke-linejoin="round"/>
<path d="M52.8557 53.0571H45.3971V60.5158H52.8557V53.0571Z" stroke="white" stroke-width="2" stroke-miterlimit="10" stroke-linecap="round" stroke-linejoin="round"/>
</svg>
