<svg width="57" height="71" viewBox="0 0 57 71" fill="none" xmlns="http://www.w3.org/2000/svg">
<g filter="url(#filter0_d)">
<path d="M22.23 53.7896C21.318 53.7896 20.349 53.7328 19.437 53.5624C15.276 52.824 11.628 50.4952 9.177 47.0304C6.726 43.5656 5.814 39.3624 6.555 35.216C7.923 27.6048 14.478 22.0952 22.173 22.0952C23.085 22.0952 24.054 22.152 24.966 22.3224C33.573 23.856 39.387 32.092 37.848 40.6688C36.537 48.28 29.925 53.7896 22.23 53.7896ZM22.173 23.6288C15.219 23.6288 9.234 28.6272 8.037 35.4432C7.353 39.192 8.208 42.9976 10.431 46.1216C12.654 49.2456 15.903 51.3472 19.722 52.0288C20.52 52.1992 21.375 52.256 22.23 52.256C29.184 52.256 35.169 47.2576 36.366 40.4416C37.734 32.66 32.49 25.2192 24.681 23.856C23.883 23.6856 23.028 23.6288 22.173 23.6288Z" fill="white"/>
<path d="M22.23 49.8136C21.546 49.8136 20.862 49.7568 20.121 49.6432C13.68 48.5072 9.291 42.316 10.431 35.8976C11.457 30.2176 16.359 26.0712 22.173 26.0712C22.857 26.0712 23.541 26.128 24.282 26.2416C27.417 26.8096 30.153 28.5136 31.977 31.1264C33.801 33.7392 34.485 36.8632 33.972 39.9872C32.946 45.6672 27.987 49.8136 22.23 49.8136ZM22.173 27.6048C17.157 27.6048 12.825 31.1832 11.97 36.1816C11.001 41.8048 14.763 47.2008 20.406 48.1664C21.033 48.28 21.603 48.3368 22.23 48.3368C27.246 48.3368 31.578 44.7584 32.433 39.76C32.889 37.0336 32.319 34.3072 30.723 32.0352C29.127 29.7632 26.733 28.2864 23.997 27.7752C23.37 27.6616 22.8 27.6048 22.173 27.6048Z" fill="white"/>
<path d="M28.899 24.14C27.531 24.14 26.106 24.0264 24.738 23.7424C20.634 23.004 16.929 21.3 14.307 18.9144C11.628 16.472 10.374 13.5752 10.887 10.792C11.628 6.24801 17.1 3.01041 24.111 3.01041C25.479 3.01041 26.904 3.12401 28.272 3.40801C36.936 4.88481 43.149 10.7352 42.18 16.3016C41.325 20.9024 35.91 24.14 28.899 24.14ZM24.111 4.54401C17.841 4.54401 12.996 7.21361 12.312 11.076C11.913 13.348 12.939 15.7336 15.276 17.8352C17.67 19.9936 21.09 21.584 24.966 22.2656C26.277 22.4928 27.588 22.6064 28.899 22.6064C35.169 22.6064 40.014 19.9368 40.698 16.0744C41.553 11.3032 35.91 6.24801 28.101 4.88481C26.733 4.65761 25.422 4.54401 24.111 4.54401Z" fill="white"/>
<path d="M28.272 21.584C27.246 21.584 26.22 21.4704 25.137 21.3C22.059 20.732 19.323 19.4824 17.328 17.7216C15.276 15.8472 14.364 13.6888 14.763 11.5304C15.39 8.00881 19.494 5.56641 24.738 5.56641C25.764 5.56641 26.79 5.68001 27.873 5.85041C30.951 6.41841 33.687 7.66801 35.682 9.42881C37.734 11.3032 38.646 13.4616 38.247 15.62C37.62 19.1416 33.516 21.584 28.272 21.584ZM24.738 7.10001C20.235 7.10001 16.758 9.03121 16.245 11.7576C15.96 13.348 16.701 15.052 18.354 16.5288C20.064 18.1192 22.572 19.2552 25.365 19.7664C26.334 19.9368 27.303 19.9936 28.215 19.9936C32.718 19.9936 36.195 18.0624 36.708 15.336C36.993 13.7456 36.252 12.0416 34.599 10.5648C32.889 8.97441 30.381 7.83841 27.588 7.32721C26.619 7.21361 25.707 7.10001 24.738 7.10001Z" fill="white"/>
<path d="M28.728 18.6304C27.759 18.744 26.676 18.6872 25.65 18.46L28.728 18.6304Z" fill="white"/>
<path d="M27.759 19.4824C27.018 19.4824 26.277 19.4256 25.536 19.2552C25.137 19.1984 24.852 18.8008 24.909 18.3464C24.966 17.9488 25.365 17.6648 25.821 17.7216C26.79 17.892 27.759 17.9488 28.728 17.8352C29.127 17.7784 29.526 18.1192 29.583 18.5168C29.64 18.9144 29.298 19.312 28.899 19.3688C28.443 19.4256 28.101 19.4824 27.759 19.4824Z" fill="white"/>
<path d="M34.314 14.9384C34.2 15.62 33.858 16.2448 33.345 16.756C32.832 17.2672 32.205 17.7216 31.407 18.0056" fill="white"/>
<path d="M31.407 18.8008C31.122 18.8008 30.837 18.6304 30.723 18.3464C30.552 17.9488 30.723 17.4944 31.122 17.324C31.806 17.04 32.376 16.6424 32.832 16.2448C33.231 15.8472 33.516 15.336 33.573 14.8248C33.63 14.4272 34.029 14.1432 34.485 14.2C34.884 14.2568 35.169 14.6544 35.112 15.1088C34.941 15.904 34.599 16.6424 33.972 17.324C33.402 17.892 32.661 18.4032 31.749 18.8008C31.578 18.8008 31.464 18.8008 31.407 18.8008Z" fill="white"/>
<path d="M48.963 40.1008L48.621 38.1128L48.222 35.784L48.051 34.9888C47.994 34.5912 47.595 34.3072 47.139 34.364L46.284 29.6496C46.056 28.2864 44.802 27.3776 43.491 27.4912L41.553 33.1712L41.952 35.3296C41.724 35.3864 41.553 35.5 41.439 35.6704C41.325 35.8408 41.268 36.068 41.325 36.2384L41.952 39.6464L43.89 50.3248C43.947 50.7224 44.289 50.9496 44.631 50.9496C44.688 50.9496 44.745 50.9496 44.745 50.9496L49.932 50.0408C50.16 49.984 50.331 49.8704 50.445 49.7C50.559 49.5296 50.616 49.3024 50.559 49.132L48.963 40.1008ZM43.662 40.2712L43.149 37.488L46.854 36.8632L47.367 39.6464L43.662 40.2712ZM45.258 49.3592L43.89 41.748L47.595 41.1232L48.906 48.6776L45.258 49.3592Z" fill="white"/>
</g>
<defs>
<filter id="filter0_d" x="2.30457" y="3.01041" width="52.2768" height="58.7792" filterUnits="userSpaceOnUse" color-interpolation-filters="sRGB">
<feFlood flood-opacity="0" result="BackgroundImageFix"/>
<feColorMatrix in="SourceAlpha" type="matrix" values="0 0 0 0 0 0 0 0 0 0 0 0 0 0 0 0 0 0 127 0"/>
<feOffset dy="4"/>
<feGaussianBlur stdDeviation="2"/>
<feColorMatrix type="matrix" values="0 0 0 0 0 0 0 0 0 0 0 0 0 0 0 0 0 0 0.25 0"/>
<feBlend mode="normal" in2="BackgroundImageFix" result="effect1_dropShadow"/>
<feBlend mode="normal" in="SourceGraphic" in2="effect1_dropShadow" result="shape"/>
</filter>
</defs>
</svg>
