<svg width="56" height="70" viewBox="0 0 56 70" fill="none" xmlns="http://www.w3.org/2000/svg">
<g clip-path="url(#clip0)">
<path d="M12.25 3.5C11.7668 3.5 11.375 3.89183 11.375 4.375V8.75H10.5137C9.3304 8.7325 9.3304 10.5168 10.5137 10.5H11.375V14H10.5137C9.3304 13.9825 9.3304 15.7668 10.5137 15.75H11.375V19.25H10.5137C9.3304 19.2325 9.3304 21.0168 10.5137 21H11.375V24.5H10.5137C9.3304 24.4825 9.3304 26.2668 10.5137 26.25H11.375V29.75H10.5137C9.3304 29.7325 9.3304 31.5168 10.5137 31.5H11.375V35H10.5137C9.3304 34.9825 9.3304 36.7668 10.5137 36.75H11.375V40.25H10.5137C9.3304 40.2325 9.3304 42.0168 10.5137 42H11.375V45.5H10.5137C9.3304 45.4825 9.3304 47.2668 10.5137 47.25H11.375V51.625C11.375 52.1082 11.7668 52.5 12.25 52.5H15.0322H41.2412C43.6064 52.5 45.5 50.5016 45.5 48.1011V7.89551C45.5 5.49486 43.6064 3.5 41.2412 3.5H39.3511H32.3989H15.0322H12.25ZM13.125 5.25H15.0322H31.5V20.084C31.5026 20.9436 32.5937 21.309 33.1133 20.624L35.8784 16.9565L38.6333 20.624C39.1516 21.3165 40.2519 20.949 40.25 20.084V5.25H41.2412C42.6294 5.25 43.75 6.39628 43.75 7.89551V48.1011C43.75 49.5998 42.6294 50.75 41.2412 50.75H15.0322H13.125V47.25H14C15.1833 47.2675 15.1833 45.4832 14 45.5H13.125V42H14C15.1833 42.0175 15.1833 40.2332 14 40.25H13.125V36.75H14C15.1833 36.7675 15.1833 34.9832 14 35H13.125V31.5H14C15.1833 31.5175 15.1833 29.7332 14 29.75H13.125V26.25H14C15.1833 26.2675 15.1833 24.4832 14 24.5H13.125V21H14C15.1833 21.0175 15.1833 19.2332 14 19.25H13.125V15.75H14C15.1833 15.7675 15.1833 13.9832 14 14H13.125V10.5H14C15.1833 10.5175 15.1833 8.7332 14 8.75H13.125V5.25ZM33.2979 5.29785H38.4521V17.394L36.5962 14.9229C36.2368 14.4423 35.5166 14.4423 35.1572 14.9229L33.2979 17.394V5.29785ZM20.125 34.9966C19.6418 34.9968 19.25 35.3884 19.25 35.8716V42.875C19.25 43.3582 19.6418 43.75 20.125 43.75H35.875C36.3582 43.75 36.75 43.3582 36.75 42.875V35.8716C36.75 35.3884 36.3582 34.9968 35.875 34.9966H20.125ZM21 36.7466H35V42H21V36.7466Z" fill="white"/>
</g>
<defs>
<clipPath id="clip0">
<rect width="56" height="70" fill="white"/>
</clipPath>
</defs>
</svg>
